<svg width="241" height="34" viewBox="0 0 241 34" fill="none" xmlns="http://www.w3.org/2000/svg">
<path d="M20.5508 30H16.2266L18.1953 18.627H7.12109L5.15234 30H0.810547L5.25781 4.40625H9.59961L7.73633 15.0586H18.8105L20.6562 4.40625H24.998L20.5508 30ZM26.4043 20.4199C26.6035 18.5566 27.1484 16.8633 28.0391 15.3398C28.9414 13.8164 30.0957 12.6387 31.502 11.8066C32.9082 10.9746 34.4668 10.582 36.1777 10.6289C37.8066 10.6523 39.2129 11.0859 40.3965 11.9297C41.5801 12.7734 42.4414 13.9277 42.9805 15.3926C43.5312 16.8574 43.7246 18.4863 43.5605 20.2793C43.373 22.2949 42.8223 24.0762 41.9082 25.623C41.0059 27.1699 39.8457 28.3594 38.4277 29.1914C37.0215 30.0117 35.457 30.3984 33.7344 30.3516C32.1172 30.3281 30.7168 29.9004 29.5332 29.0684C28.3613 28.2246 27.5 27.0762 26.9492 25.623C26.3984 24.1582 26.1992 22.5469 26.3516 20.7891L26.4043 20.4199ZM30.5 22.8281C30.5586 24.0586 30.8809 25.0488 31.4668 25.7988C32.0645 26.5371 32.8906 26.9238 33.9453 26.959C35.375 26.9941 36.5703 26.4434 37.5312 25.3066C38.5039 24.1699 39.1133 22.6172 39.3594 20.6484L39.4648 18.9258C39.4648 17.4258 39.166 16.248 38.5684 15.3926C37.9707 14.5371 37.1035 14.0859 35.9668 14.0391C34.1855 13.9922 32.7793 14.8652 31.748 16.6582C31.127 17.748 30.7344 19.002 30.5703 20.4199C30.4766 21.4043 30.4531 22.207 30.5 22.8281ZM52.666 10.9629L52.2969 12.9844C53.8672 11.3672 55.7422 10.582 57.9219 10.6289C59.1172 10.6523 60.1074 10.9277 60.8926 11.4551C61.6895 11.9824 62.2285 12.6797 62.5098 13.5469C64.2676 11.5547 66.2832 10.582 68.5566 10.6289C70.4082 10.6758 71.7793 11.3145 72.6699 12.5449C73.5723 13.7637 73.9121 15.4746 73.6895 17.6777L71.6328 30H67.4668L69.541 17.6426C69.5996 17.127 69.6055 16.6523 69.5586 16.2188C69.3711 14.8477 68.5039 14.1445 66.957 14.1094C65.2344 14.0625 63.875 15.0059 62.8789 16.9395L62.8262 17.3262L60.6465 30H56.4629L58.5371 17.6953C58.5957 17.1914 58.6016 16.7227 58.5547 16.2891C58.3672 14.8711 57.5 14.1445 55.9531 14.1094C54.3945 14.0859 53.0938 14.7832 52.0508 16.2012L49.6426 30H45.4766L48.7637 10.9805L52.666 10.9629ZM84.6758 30.3516C83.0234 30.3164 81.5879 29.9004 80.3691 29.1035C79.1621 28.3066 78.2656 27.2168 77.6797 25.834C77.1055 24.4512 76.8887 22.9102 77.0293 21.2109L77.082 20.4902C77.293 18.5566 77.8555 16.8223 78.7695 15.2871C79.6953 13.7402 80.8438 12.5684 82.2148 11.7715C83.5859 10.9746 85.0742 10.5938 86.6797 10.6289C89.0586 10.6758 90.8398 11.5605 92.0234 13.2832C93.2188 15.0059 93.6699 17.25 93.377 20.0156L93.1309 21.8438H81.1602C81.0547 23.3555 81.3594 24.5742 82.0742 25.5C82.7891 26.4258 83.7734 26.9004 85.0273 26.9238C86.8203 26.9824 88.4727 26.2031 89.9844 24.5859L92.0938 26.8008C91.2969 27.9375 90.248 28.8223 88.9473 29.4551C87.6465 30.0762 86.2227 30.375 84.6758 30.3516ZM86.4512 14.0391C84.248 13.9688 82.5957 15.5273 81.4941 18.7148L89.3867 18.7324L89.457 18.3633C89.5391 17.8242 89.5449 17.2969 89.4746 16.7812C89.3457 15.9492 89.0176 15.293 88.4902 14.8125C87.9629 14.332 87.2832 14.0742 86.4512 14.0391ZM95.5391 27.9434C95.5391 27.2285 95.7617 26.6484 96.207 26.2031C96.6641 25.7461 97.2441 25.5059 97.9473 25.4824C98.6387 25.459 99.2129 25.6699 99.6699 26.1152C100.139 26.5488 100.373 27.1113 100.373 27.8027C100.373 28.4824 100.15 29.0508 99.7051 29.5078C99.2598 29.9531 98.6797 30.1875 97.9648 30.2109C97.2734 30.2344 96.6934 30.0293 96.2246 29.5957C95.7676 29.1621 95.5391 28.6113 95.5391 27.9434ZM106.033 30L108.775 14.1445H105.963L106.525 10.9805L109.197 10.998L109.443 9.57422C109.854 7.34766 110.797 5.61914 112.273 4.38867C113.75 3.1582 115.631 2.56641 117.916 2.61328C118.83 2.625 119.721 2.74219 120.588 2.96484C121.467 3.1875 122.34 3.43359 123.207 3.70312L122.205 7.21875C120.729 6.62109 119.334 6.32227 118.021 6.32227C115.537 6.29883 114.061 7.4707 113.592 9.83789L113.363 10.998L117.143 10.9805L116.58 14.1445H112.959L110.199 30H106.033ZM120.693 30H116.51L119.814 10.9805H123.98L120.693 30ZM132.576 10.9629L132.154 13.1953C133.783 11.4375 135.664 10.582 137.797 10.6289C139.578 10.6641 140.896 11.3027 141.752 12.5449C142.607 13.7754 142.924 15.498 142.701 17.7129L140.645 30H136.479L138.553 17.6602C138.611 17.1562 138.617 16.6875 138.57 16.2539C138.418 14.8594 137.586 14.1445 136.074 14.1094C134.492 14.0859 133.104 14.8652 131.908 16.4473L129.535 30H125.369L128.656 10.9805L132.576 10.9629ZM156.342 30C156.201 29.5312 156.143 28.9395 156.166 28.2246C154.596 29.6895 152.902 30.3984 151.086 30.3516C149.434 30.3281 148.062 29.8008 146.973 28.7695C145.895 27.7266 145.391 26.4082 145.461 24.8145C145.555 22.8105 146.422 21.2344 148.062 20.0859C149.703 18.9375 151.906 18.3633 154.672 18.3633L157.379 18.3984L157.625 17.0977C157.695 16.6406 157.695 16.2129 157.625 15.8145C157.391 14.5488 156.553 13.8984 155.111 13.8633C154.221 13.8398 153.436 14.0684 152.756 14.5488C152.088 15.0176 151.678 15.6504 151.525 16.4473L147.359 16.4824C147.441 15.3105 147.857 14.2852 148.607 13.4062C149.357 12.5156 150.354 11.8242 151.596 11.332C152.838 10.8398 154.15 10.6055 155.533 10.6289C157.607 10.6758 159.225 11.3027 160.385 12.5098C161.545 13.7051 162.025 15.2578 161.826 17.168L160.367 26.0801L160.227 27.6621C160.191 28.3535 160.279 29.0273 160.49 29.6836L160.473 30H156.342ZM152.053 26.9414C152.932 26.9648 153.746 26.7656 154.496 26.3438C155.246 25.9102 155.885 25.3535 156.412 24.6738L157.062 21.0703L155.076 21.0527C153.506 21.0527 152.252 21.3516 151.314 21.9492C150.377 22.5352 149.844 23.3438 149.715 24.375C149.621 25.1602 149.791 25.7812 150.225 26.2383C150.67 26.6836 151.279 26.918 152.053 26.9414ZM171.283 10.9629L170.861 13.1953C172.49 11.4375 174.371 10.582 176.504 10.6289C178.285 10.6641 179.604 11.3027 180.459 12.5449C181.314 13.7754 181.631 15.498 181.408 17.7129L179.352 30H175.186L177.26 17.6602C177.318 17.1562 177.324 16.6875 177.277 16.2539C177.125 14.8594 176.293 14.1445 174.781 14.1094C173.199 14.0859 171.811 14.8652 170.615 16.4473L168.242 30H164.076L167.363 10.9805L171.283 10.9629ZM192.043 26.959C193.039 26.9824 193.918 26.6953 194.68 26.0977C195.453 25.4883 195.945 24.6973 196.156 23.7246L200.094 23.707C199.965 24.9609 199.508 26.1035 198.723 27.1348C197.949 28.166 196.953 28.9688 195.734 29.543C194.516 30.1172 193.244 30.3867 191.92 30.3516C190.291 30.3281 188.902 29.9062 187.754 29.0859C186.605 28.2656 185.768 27.1348 185.24 25.6934C184.713 24.2402 184.537 22.623 184.713 20.8418L184.766 20.2266C184.965 18.3867 185.498 16.7227 186.365 15.2344C187.244 13.7344 188.375 12.5801 189.758 11.7715C191.141 10.9629 192.676 10.582 194.363 10.6289C196.426 10.6758 198.072 11.3613 199.303 12.6855C200.533 13.998 201.148 15.709 201.148 17.8184H197.246C197.246 16.7285 196.977 15.8379 196.438 15.1465C195.91 14.4551 195.143 14.0859 194.135 14.0391C192.506 13.9922 191.223 14.6836 190.285 16.1133C189.348 17.543 188.844 19.5586 188.773 22.1602C188.691 25.3125 189.781 26.9121 192.043 26.959ZM210.816 30.3516C209.164 30.3164 207.729 29.9004 206.51 29.1035C205.303 28.3066 204.406 27.2168 203.82 25.834C203.246 24.4512 203.029 22.9102 203.17 21.2109L203.223 20.4902C203.434 18.5566 203.996 16.8223 204.91 15.2871C205.836 13.7402 206.984 12.5684 208.355 11.7715C209.727 10.9746 211.215 10.5938 212.82 10.6289C215.199 10.6758 216.98 11.5605 218.164 13.2832C219.359 15.0059 219.811 17.25 219.518 20.0156L219.271 21.8438H207.301C207.195 23.3555 207.5 24.5742 208.215 25.5C208.93 26.4258 209.914 26.9004 211.168 26.9238C212.961 26.9824 214.613 26.2031 216.125 24.5859L218.234 26.8008C217.438 27.9375 216.389 28.8223 215.088 29.4551C213.787 30.0762 212.363 30.375 210.816 30.3516ZM212.592 14.0391C210.389 13.9688 208.736 15.5273 207.635 18.7148L215.527 18.7324L215.598 18.3633C215.68 17.8242 215.686 17.2969 215.615 16.7812C215.486 15.9492 215.158 15.293 214.631 14.8125C214.104 14.332 213.424 14.0742 212.592 14.0391Z" fill="#39BEF8"/>
<path d="M234.301 23.1973C234.406 22.3066 234.219 21.5332 233.738 20.877C233.27 20.209 232.344 19.5879 230.961 19.0137C229.59 18.4395 228.482 17.8301 227.639 17.1855C225.646 15.6738 224.732 13.7051 224.896 11.2793C225.025 9.28711 225.758 7.6582 227.094 6.39258C228.43 5.11523 230.152 4.35352 232.262 4.10742L232.965 0.275391H235.725L235.004 4.17773C236.738 4.54102 238.045 5.43164 238.924 6.84961C239.814 8.26758 240.201 10.0957 240.084 12.334H235.936C236.041 10.8457 235.842 9.69141 235.338 8.87109C234.846 8.03906 234.09 7.60547 233.07 7.57031C231.992 7.54688 231.084 7.86328 230.346 8.51953C229.619 9.17578 229.18 10.0781 229.027 11.2266C228.922 12.1172 229.104 12.8789 229.572 13.5117C230.041 14.1445 230.955 14.7598 232.314 15.3574C233.674 15.9551 234.723 16.5176 235.461 17.0449C237.617 18.5684 238.607 20.6074 238.432 23.1621C238.303 25.1895 237.541 26.8301 236.146 28.084C234.764 29.3262 232.971 30.0586 230.768 30.2812L230.135 33.709H227.393L228.043 30.2637C226.074 29.959 224.574 29.0977 223.543 27.6797C222.512 26.2617 222.049 24.4336 222.154 22.1953L226.32 22.2129C226.238 23.7012 226.496 24.8438 227.094 25.6406C227.691 26.4258 228.564 26.8301 229.713 26.8535C230.943 26.877 231.98 26.5547 232.824 25.8867C233.68 25.207 234.172 24.3105 234.301 23.1973Z" fill="#7EC181"/>
</svg>
